<svg width="500" height="500" viewBox="0 0 500 500" fill="none" xmlns="http://www.w3.org/2000/svg">
<rect width="500" height="500" fill="#3C3C3C"/>
<path d="M359.816 113.758C365.778 117.776 369.635 122.66 372.038 129.451C372.038 130.314 372.038 131.177 372.038 132.066C372.758 132.088 373.479 132.111 374.221 132.134C398.574 133.328 418.418 144.722 437.53 158.943C446.788 165.826 455.572 171.552 466.527 175.372C478.411 179.553 487.642 184.943 493.775 196.295C494.908 198.687 495.922 201.09 496.881 203.556C497.162 204.265 497.442 204.975 497.731 205.705C500.105 212.51 501.151 220.645 498.191 227.423C494.698 233.265 488.897 237.185 482.913 240.173C482.337 240.173 481.761 240.173 481.167 240.173C480.987 240.659 480.807 241.144 480.621 241.644C478.619 245.007 476.193 247.455 472.399 248.52C468.798 249.01 465.645 248.816 462.069 248.238C457.413 247.661 454.421 249.13 450.314 251.207C438.446 257.194 425.708 256.154 412.876 254.541C389.822 251.908 366.879 254.184 348.086 268.719C335.754 278.623 327.667 291.668 324.894 307.304C324.166 318.743 324.309 330.249 327.513 341.306C327.77 342.226 328.027 343.146 328.291 344.095C330.779 351.632 335.093 357.558 339.79 363.851C343.654 369.122 347.593 374.683 347.593 381.41C346.27 384.91 345.493 386.295 342.355 388.385C338.338 389.543 334.225 389.412 330.078 389.433C329.319 389.438 328.561 389.443 327.779 389.449C326.18 389.457 324.58 389.462 322.98 389.466C320.537 389.474 318.095 389.501 315.653 389.529C314.095 389.535 312.538 389.539 310.98 389.542C310.253 389.553 309.525 389.564 308.775 389.575C304.677 389.559 302.047 389.263 298.703 386.641C292.427 379.997 285.783 372.52 285.362 363.061C285.33 362.395 285.297 361.73 285.264 361.044C285.218 360.013 285.218 360.013 285.171 358.96C284.944 353.913 284.713 348.908 283.862 343.921C283.286 343.633 282.71 343.346 282.116 343.049C282.007 342.356 281.898 341.662 281.785 340.948C281.037 336.632 279.415 332.779 277.805 328.719C275.811 323.657 273.897 318.671 272.513 313.407C271.571 313.628 270.629 313.85 269.658 314.078C262.494 315.732 255.333 317.223 248.068 318.366C247.412 318.469 246.756 318.573 246.08 318.68C238.503 319.832 230.978 320.516 223.312 320.559C222.191 320.568 222.191 320.568 221.047 320.577C218.65 320.592 216.253 320.598 213.856 320.6C213.037 320.6 212.217 320.601 211.373 320.602C193.375 320.589 176.495 318.571 159.019 314.279C158.818 314.999 158.618 315.72 158.412 316.462C157.04 320.131 155.143 323.157 153.016 326.43C146.743 334.863 146.743 334.863 145.292 344.612C147.668 351.858 152.431 358.212 156.745 364.428C160.839 370.387 164.482 375.718 163.384 383.154C161.127 386.034 158.923 387.927 155.526 389.256C151.702 389.585 147.873 389.543 144.036 389.532C142.173 389.529 140.312 389.549 138.449 389.571C137.252 389.573 136.054 389.574 134.857 389.573C133.237 389.577 133.237 389.577 131.585 389.581C127.572 389.164 123.842 388.35 121.075 385.177C120.712 384.383 120.712 384.383 120.343 383.572C120.053 382.975 119.763 382.377 119.464 381.762C119.175 381.124 118.885 380.487 118.586 379.83C116.097 374.747 113.471 370.085 110.074 365.553C104.896 358.602 100.075 351.205 97.0334 343.049C94.7287 345.351 94.7005 346.81 94.4143 350.024C95.5646 357.345 98.8058 363.361 102.992 369.339C105.878 373.48 107.577 376.86 107.401 381.955C106.543 385.259 105.883 386.389 103.145 388.385C99.1058 390.036 95.4293 390.385 91.1165 390.36C90.1611 390.362 90.1611 390.362 89.1864 390.365C87.8459 390.366 86.5054 390.363 85.165 390.356C83.1284 390.346 81.0926 390.355 79.0561 390.367C77.7471 390.365 76.4381 390.363 75.1292 390.36C74.5278 390.363 73.9266 390.367 73.307 390.37C68.2218 390.322 63.6936 389.916 59.95 386.29C56.8126 382.066 54.0781 377.541 51.3084 373.073C50.7287 372.142 50.1491 371.211 49.5519 370.251C38.5403 352.447 38.5403 352.447 38.5403 349.152C37.9641 348.864 37.3879 348.577 36.7942 348.28C37.0823 347.705 37.3704 347.129 37.6673 346.537C37.0911 346.249 36.5149 345.961 35.9212 345.665C35.3932 335.5 36.676 328.958 42.1415 320.436C45.4193 315.075 47.0462 310.092 45.9304 303.796C44.1848 297.684 41.5719 291.938 38.9849 286.146C35.5992 278.539 33.8783 271.409 32.9924 263.151C32.6778 259.838 32.6778 259.838 31.556 256.738C31.5421 255.473 31.5859 254.207 31.6618 252.944C31.704 252.202 31.7462 251.461 31.7897 250.696C31.8631 249.533 31.8631 249.533 31.938 248.347C31.9836 247.564 32.0292 246.782 32.0761 245.976C32.1895 244.042 32.3073 242.107 32.4291 240.173C31.6188 241.036 31.6188 241.036 30.7921 241.917C28.937 243.66 28.937 243.66 27.1909 243.66C26.9546 244.289 26.7182 244.917 26.4747 245.564C25.4578 247.989 24.2347 250.15 22.9349 252.433C20.6556 257.008 19.3747 261.341 18.406 266.349C18.2579 267.103 18.1098 267.858 17.9572 268.635C16.2919 277.558 15.5689 286.55 14.8593 295.589C12.7828 321.26 12.7828 321.26 10.6033 325.613C9.16281 325.325 7.72231 325.037 6.23816 324.741C-1.17844 296.733 -4.14883 267.016 9.75415 240.486C15.7975 230.209 23.6045 222.973 34.7753 218.704C40.0968 216.395 42.193 213.42 44.6916 208.437C47.8135 202.219 52.1792 197.313 56.8739 192.222C57.5109 191.524 58.1479 190.827 58.8042 190.108C74.8036 173.388 95.7588 162.919 117.113 154.734C118.787 154.064 120.461 153.393 122.133 152.718C125.536 151.348 128.769 150.279 132.391 149.666C135.477 149.128 138.537 148.536 141.589 147.834C168.693 141.657 196.86 140.699 224.55 142.147C225.477 142.194 225.477 142.194 226.423 142.243C244.919 143.25 263.273 145.959 281.605 148.518C289.951 149.668 298.238 150.535 306.67 150.483C307.344 150.482 308.019 150.48 308.714 150.478C313.29 150.444 317.743 150.173 322.275 149.503C322.086 148.974 321.897 148.446 321.702 147.902C318.944 139.614 318.703 132.944 321.985 124.754C325.267 118.325 330.311 114.005 336.789 110.924C344.856 109.134 352.491 109.875 359.816 113.758ZM338.863 129.451C336.609 133.153 335.741 136.242 336.493 140.57C338.078 145.543 341.01 150.026 343.818 154.393C345.405 157.254 345.267 159.359 344.974 162.58C344.086 164.988 343.785 165.789 341.482 166.939C335.023 167.355 335.023 167.355 332.779 165.577C331.102 164.119 331.102 164.119 329.062 164.419C328.371 164.603 327.68 164.788 326.968 164.978C305.78 169.96 283.074 165.648 261.797 163.016C260.862 162.9 259.926 162.785 258.961 162.666C254.291 162.086 249.622 161.498 244.954 160.897C191.922 154.147 130.871 157.765 85.7385 189.552C84.2486 190.712 82.7764 191.894 81.3188 193.094C80.8459 193.473 80.3729 193.851 79.8856 194.241C64.4733 206.6 51.9386 221.863 49.0167 241.917C47.3397 260.096 51.184 274.564 58.5995 290.988C62.4133 299.64 64.2671 309.583 60.748 318.692C59.6013 321.173 58.3193 323.558 57.0274 325.967C52.355 334.078 52.355 334.078 52.5088 343.049C55.4281 350.404 59.3246 357.463 64.1412 363.745C65.6043 365.717 65.6043 365.717 66.8217 367.988C68.2912 370.486 69.3003 371.931 71.7155 373.563C76.6056 374.512 81.6333 374.011 86.557 373.563C85.5478 370.957 84.4643 368.493 83.1194 366.044C79.1426 358.146 77.2087 349.625 79.5727 340.979C84.171 328.893 95.3052 320.167 105 312.154C123.193 296.405 134.701 274.152 136.597 250.262C136.918 246.355 137.505 242.995 138.939 239.301C142.767 238.576 145.111 238.189 148.87 239.301C151.956 241.65 152.132 243.384 152.907 247.148C152.844 249.564 152.694 251.749 152.362 254.122C152.276 254.769 152.191 255.415 152.103 256.081C150.368 268.284 146.191 279.395 141.558 290.739C179.89 306.078 227.568 310.06 267.274 296.842C267.247 295.79 267.247 295.79 267.22 294.717C267.274 292.483 267.274 292.483 268.147 291.611C268.798 283.208 267.526 274.72 266.647 266.37C264.369 244.525 264.369 244.525 267.274 240.173C270.659 238.444 272.087 238.309 275.786 239.356C279.089 241.322 279.337 241.823 280.37 245.404C280.77 248.143 280.979 250.886 281.181 253.646C281.316 255.308 281.451 256.97 281.587 258.632C281.655 259.498 281.723 260.364 281.794 261.256C283.685 284.985 286.32 306.838 295.375 328.991C298.614 337.004 300.404 344.22 300.932 352.838C301.232 362.981 301.232 362.981 305.79 371.619C312.146 374.328 319.89 373.222 326.64 372.692C326.064 372.404 325.488 372.116 324.894 371.82C324.306 370.369 323.725 368.916 323.148 367.461C322.064 365.701 320.952 363.959 319.82 362.23C307.959 343.442 305.721 319.23 310.053 297.714C311.362 292.352 312.983 287.077 314.576 281.794C320.726 261.244 325.301 241.037 326.45 219.57C326.629 217.634 326.984 215.886 327.513 214.018C331.449 212.804 334.342 211.976 338.372 213.146C341.173 215.33 341.495 216.71 342.355 220.121C342.777 231.781 340.05 243.582 337.99 254.994C341.006 253.528 343.741 251.806 346.556 249.981C365.996 237.786 390.406 234.427 412.907 237.558C418.298 238.305 423.561 238.623 429.003 238.647C429.711 238.655 430.419 238.663 431.148 238.671C434.542 238.654 437.265 238.627 440.134 236.686C439.651 236.527 439.167 236.369 438.668 236.206C438.036 235.986 437.403 235.767 436.751 235.542C436.123 235.329 435.496 235.117 434.849 234.898C433.15 234.07 433.15 234.07 431.404 231.455C432.656 228.146 433.568 226.514 436.588 224.589C443.753 222.073 451.165 223.254 458.038 226.03C461.109 227.534 463.657 229.323 466.325 231.455C469.184 230.247 471.222 228.503 473.552 226.486C475.738 224.838 478.119 223.759 480.611 222.645C482.204 221.951 482.204 221.951 482.913 220.121C483.779 213.004 482.475 207.781 478.548 201.813C473.567 195.763 466.978 192.747 459.614 190.588C448.18 186.982 439.063 181.286 429.658 173.914C410.476 159.08 391.398 148.845 366.769 148.256C362.063 148.056 362.063 148.056 359.877 146.761C358.549 144.462 358.206 142.247 357.742 139.64C356.518 133.893 355.149 130.769 350.212 127.38C345.803 126.004 342.662 126.894 338.863 129.451ZM268.147 291.611C268.147 293.05 268.147 294.488 268.147 295.97C268.435 295.97 268.724 295.97 269.02 295.97C269.02 294.532 269.02 293.093 269.02 291.611C268.732 291.611 268.444 291.611 268.147 291.611ZM132.828 304.689C131.252 306.4 129.769 308.122 128.299 309.92C127.425 310.968 126.551 312.015 125.676 313.063C124.859 314.049 124.041 315.036 123.224 316.022C118.942 321.166 114.356 325.63 109.256 329.972C111.871 341.216 118.611 350.313 125.189 359.614C125.805 360.494 126.422 361.374 127.057 362.281C128.682 364.594 130.309 366.906 131.955 369.204C132.632 370.192 132.632 370.192 133.322 371.199C134.487 372.921 134.487 372.921 136.739 373.032C137.519 372.992 138.299 372.951 139.103 372.91C139.889 372.878 140.676 372.847 141.486 372.814C142.086 372.774 142.686 372.733 143.304 372.692C142.764 371.866 142.764 371.866 142.213 371.023C139.151 366.286 136.198 361.498 133.373 356.617C133.072 356.102 132.77 355.587 132.459 355.057C128.79 348.653 128.539 342.511 129.335 335.203C131.507 328.791 135.386 323.375 139.331 317.933C140.952 315.645 142.282 313.406 143.304 310.792C142.722 308.089 142.722 308.089 140.688 307.158C139.985 306.864 139.282 306.571 138.557 306.269C137.856 305.969 137.155 305.669 136.432 305.36C134.629 304.59 134.629 304.59 132.828 304.689Z" fill="#BCBEDA"/>
<path d="M402.884 172.177C405.682 173.778 407.468 174.891 408.869 177.837C408.65 180.753 407.912 182.083 406.086 184.376C402.536 187.196 399.253 188.985 394.737 189.607C392.783 188.926 391.105 188.073 389.321 187.029C387.641 185.984 387.641 185.984 385.133 185.248C383.497 182.414 383.497 182.414 382.514 179.145C383.925 175.107 386.766 173.399 390.372 171.298C394.659 169.871 398.742 170.389 402.884 172.177Z" fill="#BCBEDA"/>
<path d="M466.162 202.303C469.195 202.38 469.797 202.669 472.382 204.592C474.219 207.093 475.056 208.318 475.056 211.403C473.982 213.829 472.998 215.322 470.909 216.961C467.948 217.782 465.793 217.373 462.833 216.634C460.501 214.917 459.559 213.712 458.523 211.021C458.451 208.095 459.381 206.763 461.087 204.428C462.833 202.684 462.833 202.684 466.162 202.303Z" fill="#BCBEDA"/>
<path d="M402.594 171.298C403.458 171.298 404.323 171.298 405.213 171.298C404.925 171.874 404.637 172.449 404.34 173.042C403.764 172.467 403.188 171.891 402.594 171.298Z" fill="#BCBEDA"/>
<path d="M140.685 309.048C141.261 309.048 141.837 309.048 142.431 309.048C142.143 309.623 141.855 310.199 141.558 310.791C141.27 310.216 140.982 309.641 140.685 309.048Z" fill="#BCBEDA"/>
<path d="M36.7942 285.508C37.3704 286.084 37.9466 286.659 38.5403 287.252C37.9641 287.252 37.3879 287.252 36.7942 287.252C36.7942 286.677 36.7942 286.101 36.7942 285.508Z" fill="#BCBEDA"/>
<path d="M365.927 149.503C368.546 150.374 368.546 150.374 368.546 150.374L365.927 149.503Z" fill="#BCBEDA"/>
<path d="M321.402 390.128C323.148 391 323.148 391 323.148 391L321.402 390.128Z" fill="#BCBEDA"/>
<path d="M137.193 390.128C138.939 391 138.939 391 138.939 391L137.193 390.128Z" fill="#BCBEDA"/>
<path d="M221.004 321.253C222.75 322.125 222.75 322.125 222.75 322.125L221.004 321.253Z" fill="#BCBEDA"/>
<path d="M258.544 296.842C260.29 297.714 260.29 297.714 260.29 297.714L258.544 296.842Z" fill="#BCBEDA"/>
<path d="M140.685 236.686C142.431 237.558 142.431 237.558 142.431 237.558L140.685 236.686Z" fill="#BCBEDA"/>
<path d="M447.119 187.863C448.865 188.735 448.865 188.735 448.865 188.735L447.119 187.863Z" fill="#BCBEDA"/>
<path d="M232.353 160.836C234.099 161.708 234.099 161.708 234.099 161.708L232.353 160.836Z" fill="#BCBEDA"/>
<path d="M105.764 157.349C107.51 158.221 107.51 158.221 107.51 158.221L105.764 157.349Z" fill="#BCBEDA"/>
</svg>
