<svg width="500" height="500" viewBox="0 0 500 500" fill="none" xmlns="http://www.w3.org/2000/svg">
<path d="M359.816 3.75756C365.778 7.77633 369.635 12.6602 372.038 19.4505C372.038 20.3136 372.038 21.1768 372.038 22.066C372.758 22.0885 373.479 22.111 374.221 22.1341C398.574 23.3284 418.418 34.722 437.53 48.9434C446.788 55.8263 455.572 61.5524 466.527 65.3715C478.411 69.5529 487.642 74.9431 493.775 86.2955C494.908 88.6873 495.922 91.0899 496.881 93.5562C497.162 94.2654 497.442 94.9745 497.731 95.7051C500.105 102.51 501.151 110.645 498.191 117.423C494.698 123.265 488.897 127.185 482.913 130.173C482.337 130.173 481.761 130.173 481.167 130.173C480.987 130.659 480.807 131.144 480.621 131.644C478.619 135.007 476.193 137.455 472.399 138.52C468.798 139.01 465.645 138.816 462.069 138.238C457.413 137.661 454.421 139.13 450.314 141.207C438.446 147.194 425.708 146.154 412.876 144.541C389.822 141.908 366.879 144.184 348.086 158.719C335.754 168.623 327.667 181.668 324.894 197.304C324.166 208.743 324.309 220.249 327.513 231.306C327.77 232.226 328.027 233.146 328.291 234.095C330.779 241.632 335.093 247.558 339.79 253.851C343.654 259.122 347.593 264.683 347.593 271.41C346.27 274.91 345.493 276.295 342.355 278.385C338.338 279.543 334.225 279.412 330.078 279.433C329.319 279.438 328.561 279.443 327.779 279.449C326.18 279.457 324.58 279.462 322.98 279.466C320.537 279.474 318.095 279.501 315.653 279.529C314.095 279.535 312.538 279.539 310.98 279.542C310.253 279.553 309.525 279.564 308.775 279.575C304.677 279.559 302.047 279.263 298.703 276.641C292.427 269.997 285.783 262.52 285.362 253.061C285.33 252.395 285.297 251.73 285.264 251.044C285.218 250.013 285.218 250.013 285.171 248.96C284.944 243.913 284.713 238.908 283.862 233.921C283.286 233.633 282.71 233.346 282.116 233.049C282.007 232.356 281.898 231.662 281.785 230.948C281.037 226.632 279.415 222.779 277.805 218.719C275.811 213.657 273.897 208.671 272.513 203.407C271.571 203.628 270.629 203.85 269.658 204.078C262.494 205.732 255.333 207.223 248.068 208.366C247.412 208.469 246.756 208.573 246.08 208.68C238.503 209.832 230.978 210.516 223.312 210.559C222.191 210.568 222.191 210.568 221.047 210.577C218.65 210.592 216.253 210.598 213.856 210.6C213.037 210.6 212.217 210.601 211.373 210.602C193.375 210.589 176.495 208.571 159.019 204.279C158.818 204.999 158.618 205.72 158.412 206.462C157.04 210.131 155.143 213.157 153.016 216.43C146.743 224.863 146.743 224.863 145.292 234.612C147.668 241.858 152.431 248.212 156.745 254.428C160.839 260.387 164.482 265.718 163.384 273.154C161.127 276.034 158.923 277.927 155.526 279.256C151.702 279.585 147.873 279.543 144.036 279.532C142.173 279.529 140.312 279.549 138.449 279.571C137.252 279.573 136.054 279.574 134.857 279.573C133.237 279.577 133.237 279.577 131.585 279.581C127.572 279.164 123.842 278.35 121.075 275.177C120.712 274.383 120.712 274.383 120.343 273.572C120.053 272.975 119.763 272.377 119.464 271.762C119.175 271.124 118.885 270.487 118.586 269.83C116.097 264.747 113.471 260.085 110.074 255.553C104.896 248.602 100.075 241.205 97.0334 233.049C94.7287 235.351 94.7005 236.81 94.4143 240.024C95.5646 247.345 98.8058 253.361 102.992 259.339C105.878 263.48 107.577 266.86 107.401 271.955C106.543 275.259 105.883 276.389 103.145 278.385C99.1058 280.036 95.4293 280.385 91.1165 280.36C90.1611 280.362 90.1611 280.362 89.1864 280.365C87.8459 280.366 86.5054 280.363 85.165 280.356C83.1284 280.346 81.0926 280.355 79.0561 280.367C77.7471 280.365 76.4381 280.363 75.1292 280.36C74.5278 280.363 73.9266 280.367 73.307 280.37C68.2218 280.322 63.6936 279.916 59.95 276.29C56.8126 272.066 54.0781 267.541 51.3084 263.073C50.7287 262.142 50.1491 261.211 49.5519 260.251C38.5403 242.447 38.5403 242.447 38.5403 239.152C37.9641 238.864 37.3879 238.577 36.7942 238.28C37.0823 237.705 37.3704 237.129 37.6673 236.537C37.0911 236.249 36.5149 235.961 35.9212 235.665C35.3932 225.5 36.676 218.958 42.1415 210.436C45.4193 205.075 47.0462 200.092 45.9304 193.796C44.1848 187.684 41.5719 181.938 38.9849 176.146C35.5992 168.539 33.8783 161.409 32.9924 153.151C32.6778 149.838 32.6778 149.838 31.556 146.738C31.5421 145.473 31.5859 144.207 31.6618 142.944C31.704 142.202 31.7462 141.461 31.7897 140.696C31.8631 139.533 31.8631 139.533 31.938 138.347C31.9836 137.564 32.0292 136.782 32.0761 135.976C32.1895 134.042 32.3073 132.107 32.4291 130.173C31.6188 131.036 31.6188 131.036 30.7921 131.917C28.937 133.66 28.937 133.66 27.1909 133.66C26.9546 134.289 26.7182 134.917 26.4747 135.564C25.4578 137.989 24.2347 140.15 22.9349 142.433C20.6556 147.008 19.3747 151.341 18.406 156.349C18.2579 157.103 18.1098 157.858 17.9572 158.635C16.2919 167.558 15.5689 176.55 14.8593 185.589C12.7828 211.26 12.7828 211.26 10.6033 215.613C9.16281 215.325 7.72231 215.037 6.23816 214.741C-1.17844 186.733 -4.14883 157.016 9.75415 130.486C15.7975 120.209 23.6045 112.973 34.7753 108.704C40.0968 106.395 42.193 103.42 44.6916 98.4371C47.8135 92.2189 52.1792 87.3127 56.8739 82.2224C57.5109 81.5245 58.1479 80.8266 58.8042 80.1075C74.8036 63.3876 95.7588 52.9187 117.113 44.7336C118.787 44.0644 120.461 43.3927 122.133 42.7175C125.536 41.3479 128.769 40.2786 132.391 39.6661C135.477 39.1278 138.537 38.536 141.589 37.8339C168.693 31.6565 196.86 30.6987 224.55 32.1466C225.477 32.1942 225.477 32.1942 226.423 32.2428C244.919 33.2503 263.273 35.9594 281.605 38.518C289.951 39.6682 298.238 40.5355 306.67 40.4835C307.344 40.4818 308.019 40.4801 308.714 40.4784C313.29 40.4437 317.743 40.1731 322.275 39.5027C322.086 38.9744 321.897 38.4462 321.702 37.902C318.944 29.6136 318.703 22.9442 321.985 14.7542C325.267 8.3247 330.311 4.00477 336.789 0.924102C344.856 -0.866072 352.491 -0.124759 359.816 3.75756ZM338.863 19.4505C336.609 23.1529 335.741 26.2422 336.493 30.5698C338.078 35.5425 341.01 40.026 343.818 44.3931C345.405 47.2538 345.267 49.359 344.974 52.5801C344.086 54.9876 343.785 55.7892 341.482 56.9393C335.023 57.3554 335.023 57.3554 332.779 55.577C331.102 54.1189 331.102 54.1189 329.062 54.4191C328.371 54.6035 327.68 54.7878 326.968 54.9777C305.78 59.9598 283.074 55.6485 261.797 53.016C260.862 52.9004 259.926 52.7847 258.961 52.6655C254.291 52.0862 249.622 51.4984 244.954 50.8973C191.922 44.1474 130.871 47.7652 85.7385 79.5524C84.2486 80.712 82.7764 81.8944 81.3188 83.0942C80.8459 83.4725 80.3729 83.8509 79.8856 84.2406C64.4733 96.6002 51.9386 111.863 49.0167 131.917C47.3397 150.096 51.184 164.564 58.5995 180.988C62.4133 189.64 64.2671 199.583 60.748 208.692C59.6013 211.173 58.3193 213.558 57.0274 215.967C52.355 224.078 52.355 224.078 52.5088 233.049C55.4281 240.404 59.3246 247.463 64.1412 253.745C65.6043 255.717 65.6043 255.717 66.8217 257.988C68.2912 260.486 69.3003 261.931 71.7155 263.563C76.6056 264.512 81.6333 264.011 86.557 263.563C85.5478 260.957 84.4643 258.493 83.1194 256.044C79.1426 248.146 77.2087 239.625 79.5727 230.979C84.171 218.893 95.3052 210.167 105 202.154C123.193 186.405 134.701 164.152 136.597 140.262C136.918 136.355 137.505 132.995 138.939 129.301C142.767 128.576 145.111 128.189 148.87 129.301C151.956 131.65 152.132 133.384 152.907 137.148C152.844 139.564 152.694 141.749 152.362 144.122C152.276 144.769 152.191 145.415 152.103 146.081C150.368 158.284 146.191 169.395 141.558 180.739C179.89 196.078 227.568 200.06 267.274 186.842C267.247 185.79 267.247 185.79 267.22 184.717C267.274 182.483 267.274 182.483 268.147 181.611C268.798 173.208 267.526 164.72 266.647 156.37C264.369 134.525 264.369 134.525 267.274 130.173C270.659 128.444 272.087 128.309 275.786 129.356C279.089 131.322 279.337 131.823 280.37 135.404C280.77 138.143 280.979 140.886 281.181 143.646C281.316 145.308 281.451 146.97 281.587 148.632C281.655 149.498 281.723 150.364 281.794 151.256C283.685 174.985 286.32 196.838 295.375 218.991C298.614 227.004 300.404 234.22 300.932 242.838C301.232 252.981 301.232 252.981 305.79 261.619C312.146 264.328 319.89 263.222 326.64 262.692C326.064 262.404 325.488 262.116 324.894 261.82C324.306 260.369 323.725 258.916 323.148 257.461C322.064 255.701 320.952 253.959 319.82 252.23C307.959 233.442 305.721 209.23 310.053 187.714C311.362 182.352 312.983 177.077 314.576 171.794C320.726 151.244 325.301 131.037 326.45 109.57C326.629 107.634 326.984 105.886 327.513 104.018C331.449 102.804 334.342 101.976 338.372 103.146C341.173 105.33 341.495 106.71 342.355 110.121C342.777 121.781 340.05 133.582 337.99 144.994C341.006 143.528 343.741 141.806 346.556 139.981C365.996 127.786 390.406 124.427 412.907 127.558C418.298 128.305 423.561 128.623 429.003 128.647C429.711 128.655 430.419 128.663 431.148 128.671C434.542 128.654 437.265 128.627 440.134 126.686C439.651 126.527 439.167 126.369 438.668 126.206C438.036 125.986 437.403 125.767 436.751 125.542C436.123 125.329 435.496 125.117 434.849 124.898C433.15 124.07 433.15 124.07 431.404 121.455C432.656 118.146 433.568 116.514 436.588 114.589C443.753 112.073 451.165 113.254 458.038 116.03C461.109 117.534 463.657 119.323 466.325 121.455C469.184 120.247 471.222 118.503 473.552 116.486C475.738 114.838 478.119 113.759 480.611 112.645C482.204 111.951 482.204 111.951 482.913 110.121C483.779 103.004 482.475 97.7813 478.548 91.8125C473.567 85.763 466.978 82.7465 459.614 80.5877C448.18 76.9822 439.063 71.2861 429.658 63.9139C410.476 49.08 391.398 38.8448 366.769 38.2562C362.063 38.0559 362.063 38.0559 359.877 36.7612C358.549 34.4624 358.206 32.2469 357.742 29.6401C356.518 23.8935 355.149 20.7693 350.212 17.3799C345.803 16.004 342.662 16.8937 338.863 19.4505ZM268.147 181.611C268.147 183.05 268.147 184.488 268.147 185.97C268.435 185.97 268.724 185.97 269.02 185.97C269.02 184.532 269.02 183.093 269.02 181.611C268.732 181.611 268.444 181.611 268.147 181.611ZM132.828 194.689C131.252 196.4 129.769 198.122 128.299 199.92C127.425 200.968 126.551 202.015 125.676 203.063C124.859 204.049 124.041 205.036 123.224 206.022C118.942 211.166 114.356 215.63 109.256 219.972C111.871 231.216 118.611 240.313 125.189 249.614C125.805 250.494 126.422 251.374 127.057 252.281C128.682 254.594 130.309 256.906 131.955 259.204C132.632 260.192 132.632 260.192 133.322 261.199C134.487 262.921 134.487 262.921 136.739 263.032C137.519 262.992 138.299 262.951 139.103 262.91C139.889 262.878 140.676 262.847 141.486 262.814C142.086 262.774 142.686 262.733 143.304 262.692C142.764 261.866 142.764 261.866 142.213 261.023C139.151 256.286 136.198 251.498 133.373 246.617C133.072 246.102 132.77 245.587 132.459 245.057C128.79 238.653 128.539 232.511 129.335 225.203C131.507 218.791 135.386 213.375 139.331 207.933C140.952 205.645 142.282 203.406 143.304 200.792C142.722 198.089 142.722 198.089 140.688 197.158C139.985 196.864 139.282 196.571 138.557 196.269C137.856 195.969 137.155 195.669 136.432 195.36C134.629 194.59 134.629 194.59 132.828 194.689Z" fill="#BCBEDA"/>
<path d="M402.884 62.1771C405.682 63.7779 407.468 64.8908 408.869 67.8372C408.65 70.7529 407.912 72.0827 406.086 74.3759C402.536 77.1959 399.253 78.9848 394.737 79.6069C392.783 78.9264 391.105 78.0729 389.321 77.0289C387.641 75.9844 387.641 75.9844 385.133 75.2477C383.497 72.4143 383.497 72.4143 382.514 69.1449C383.925 65.1073 386.766 63.3989 390.372 61.2984C394.659 59.8714 398.742 60.3894 402.884 62.1771Z" fill="#BCBEDA"/>
<path d="M466.162 92.303C469.195 92.3801 469.797 92.6694 472.382 94.5915C474.219 97.0928 475.056 98.3176 475.056 101.403C473.982 103.829 472.998 105.322 470.909 106.961C467.948 107.782 465.793 107.373 462.833 106.634C460.501 104.917 459.559 103.712 458.523 101.021C458.451 98.0952 459.381 96.7633 461.087 94.4281C462.833 92.6844 462.833 92.6844 466.162 92.303Z" fill="#BCBEDA"/>
<path d="M402.594 61.2985C403.458 61.2985 404.323 61.2985 405.213 61.2985C404.925 61.8739 404.637 62.4493 404.34 63.0421C403.764 62.4667 403.188 61.8913 402.594 61.2985Z" fill="#BCBEDA"/>
<path d="M140.685 199.048C141.261 199.048 141.837 199.048 142.431 199.048C142.143 199.623 141.855 200.199 141.558 200.791C141.27 200.216 140.982 199.641 140.685 199.048Z" fill="#BCBEDA"/>
<path d="M36.7942 175.508C37.3704 176.084 37.9466 176.659 38.5403 177.252C37.9641 177.252 37.3879 177.252 36.7942 177.252C36.7942 176.677 36.7942 176.101 36.7942 175.508Z" fill="#BCBEDA"/>
<path d="M365.927 39.5027C368.546 40.3745 368.546 40.3745 368.546 40.3745L365.927 39.5027Z" fill="#BCBEDA"/>
<path d="M321.402 280.128C323.148 281 323.148 281 323.148 281L321.402 280.128Z" fill="#BCBEDA"/>
<path d="M137.193 280.128C138.939 281 138.939 281 138.939 281L137.193 280.128Z" fill="#BCBEDA"/>
<path d="M221.004 211.253C222.75 212.125 222.75 212.125 222.75 212.125L221.004 211.253Z" fill="#BCBEDA"/>
<path d="M258.544 186.842C260.29 187.714 260.29 187.714 260.29 187.714L258.544 186.842Z" fill="#BCBEDA"/>
<path d="M140.685 126.686C142.431 127.558 142.431 127.558 142.431 127.558L140.685 126.686Z" fill="#363636"/>
<path d="M447.119 77.8633C448.865 78.7351 448.865 78.7351 448.865 78.7351L447.119 77.8633Z" fill="#BCBEDA"/>
<path d="M232.353 50.8365C234.099 51.7083 234.099 51.7083 234.099 51.7083L232.353 50.8365Z" fill="#BCBEDA"/>
<path d="M105.764 47.3491C107.51 48.221 107.51 48.221 107.51 48.221L105.764 47.3491Z" fill="#BCBEDA"/>
<path d="M153.508 312.544C161.529 312.544 168.74 314.208 175.14 317.536L172.068 332L170.66 332.64C168.1 330.848 165.284 329.44 162.212 328.416C159.14 327.392 155.983 326.88 152.74 326.88C139.172 326.88 132.388 335.797 132.388 353.632C132.388 363.275 134.137 370.528 137.636 375.392C141.22 380.171 146.425 382.56 153.252 382.56C156.409 382.56 159.652 382.091 162.98 381.152C166.393 380.128 169.465 378.763 172.196 377.056L173.732 377.952L172.324 392.672C165.839 395.659 159.012 397.152 151.844 397.152C139.556 397.152 130.169 393.568 123.684 386.4C117.284 379.232 114.084 368.949 114.084 355.552C114.084 341.899 117.497 331.317 124.324 323.808C131.236 316.299 140.964 312.544 153.508 312.544ZM222.053 358.88C222.138 355.808 221.498 353.461 220.133 351.84C218.768 350.219 216.762 349.408 214.117 349.408C210.277 349.408 206.181 351.243 201.829 354.912L201.573 369.76L202.469 396H185.445L186.341 371.296L185.573 307.424L202.597 306.144L201.957 344.928H202.725C207.418 340.661 212.581 337.589 218.213 335.712C224.698 335.712 229.605 337.205 232.933 340.192C236.346 343.093 238.01 347.317 237.925 352.864L237.541 369.888L238.181 396H221.157L222.053 358.88ZM254.335 371.424L253.695 337.632L270.463 336.224L269.695 369.76L270.463 396H253.439L254.335 371.424ZM262.399 307.296C265.044 307.296 267.092 308.064 268.543 309.6C270.079 311.136 270.847 313.269 270.847 316C270.847 318.901 270.036 321.205 268.415 322.912C266.794 324.619 264.575 325.472 261.759 325.472C258.943 325.472 256.767 324.704 255.231 323.168C253.78 321.632 253.055 319.456 253.055 316.64C253.055 313.824 253.866 311.563 255.487 309.856C257.194 308.149 259.498 307.296 262.399 307.296ZM319.454 336.352C320.222 336.352 321.289 336.437 322.654 336.608V352.352L320.862 352.992C319.411 352.395 317.833 352.096 316.126 352.096C311.177 352.096 306.697 355.296 302.686 361.696V369.76L303.582 396H286.558L287.582 371.424L286.814 337.632L302.942 336.224L302.814 347.872H303.838C308.019 340.192 313.225 336.352 319.454 336.352ZM362.546 335.712C369.97 335.712 375.687 338.229 379.698 343.264C383.709 348.299 385.714 355.424 385.714 364.64C385.714 375.051 383.111 383.115 377.906 388.832C372.786 394.464 365.533 397.28 356.146 397.28C353.415 397.28 350.557 397.024 347.57 396.512L347.954 419.68H331.058L331.954 371.424L331.186 337.632L347.442 336.224L347.314 344.928H348.21C350.599 342.624 352.903 340.789 355.122 339.424C357.341 337.973 359.815 336.736 362.546 335.712ZM356.274 386.144C360.711 386.144 364.082 384.565 366.386 381.408C368.69 378.251 369.842 373.6 369.842 367.456C369.842 361.483 368.861 357.003 366.898 354.016C365.021 350.944 362.205 349.408 358.45 349.408C354.781 349.408 351.069 351.243 347.314 354.912L347.186 369.76L347.442 384.224C350.514 385.504 353.458 386.144 356.274 386.144Z" fill="#BCBEDA"/>
</svg>
